<svg id="visual" viewBox="0 0 900 600" width="900" height="600" xmlns="http://www.w3.org/2000/svg" xmlns:xlink="http://www.w3.org/1999/xlink" version="1.1"><rect x="0" y="0" width="900" height="600" fill="#FFFFFF"></rect><defs><linearGradient id="grad1_0" x1="33.3%" y1="0%" x2="100%" y2="100%"><stop offset="20%" stop-color="#ffffff" stop-opacity="1"></stop><stop offset="80%" stop-color="#ffffff" stop-opacity="1"></stop></linearGradient></defs><defs><linearGradient id="grad2_0" x1="0%" y1="0%" x2="66.7%" y2="100%"><stop offset="20%" stop-color="#ffffff" stop-opacity="1"></stop><stop offset="80%" stop-color="#ffffff" stop-opacity="1"></stop></linearGradient></defs><g transform="translate(900, 0)"><path d="M0 378.6C-28.4 321.4 -56.9 264.2 -104.9 253.1C-152.9 242.1 -220.4 277.2 -265.9 265.9C-311.3 254.6 -334.7 196.9 -349.8 144.9C-364.9 92.8 -371.7 46.4 -378.6 0L0 0Z" fill="#f185b0"></path></g><g transform="translate(0, 600)"><path d="M0 -378.6C56.3 -381.1 112.6 -383.6 144.9 -349.8C177.2 -315.9 185.4 -245.8 202.9 -202.9C220.5 -160.1 247.3 -144.5 278.1 -115.2C308.9 -85.9 343.7 -43 378.6 0L0 0Z" fill="#f185b0"></path></g></svg>