<svg id="visual" viewBox="0 0 900 600" width="900" height="600" xmlns="http://www.w3.org/2000/svg" xmlns:xlink="http://www.w3.org/1999/xlink" version="1.1"><rect x="0" y="0" width="900" height="600" fill="#5c243a"></rect><path d="M0 38L12.5 33.2C25 28.3 50 18.7 75 20.5C100 22.3 125 35.7 150 37.7C175 39.7 200 30.3 225 28C250 25.7 275 30.3 300 29.2C325 28 350 21 375 17.8C400 14.7 425 15.3 450 19.3C475 23.3 500 30.7 525 30.7C550 30.7 575 23.3 600 19.2C625 15 650 14 675 15C700 16 725 19 750 23.7C775 28.3 800 34.7 825 36.3C850 38 875 35 887.5 33.5L900 32L900 0L887.5 0C875 0 850 0 825 0C800 0 775 0 750 0C725 0 700 0 675 0C650 0 625 0 600 0C575 0 550 0 525 0C500 0 475 0 450 0C425 0 400 0 375 0C350 0 325 0 300 0C275 0 250 0 225 0C200 0 175 0 150 0C125 0 100 0 75 0C50 0 25 0 12.5 0L0 0Z" fill="#fca4a6" stroke-linecap="round" stroke-linejoin="miter"></path></svg>